<?xml version="1.0" standalone="no"?>
<!DOCTYPE svg PUBLIC "-//W3C//DTD SVG 20010904//EN"
 "http://www.w3.org/TR/2001/REC-SVG-20010904/DTD/svg10.dtd">
<svg width="256" height="256" fill="none"
  xmlns="http://www.w3.org/2000/svg">

  <g transform="translate(0.000000,300.000000) scale(0.100000,-0.100000)" fill="#000000" stroke="none">
    <path d="M214 2447 c-2 -7 -3 -89 -2 -182 l3 -170 385 -5 385 -5 5 -565 5
-565 52 -3 52 -3 151 142 150 141 0 430 0 429 -137 157 c-76 86 -150 169 -165
184 l-26 28 -427 0 c-338 0 -427 -3 -431 -13z"/>
    <path d="M1250 2454 c0 -5 85 -104 145 -169 11 -12 52 -58 90 -103 l70 -81
209 -1 209 0 62 -29 c109 -52 160 -137 160 -266 -1 -93 -21 -142 -81 -194 -76
-67 -106 -74 -339 -80 l-210 -6 -3 -42 c-3 -40 1 -46 110 -174 62 -73 145
-169 183 -214 39 -44 117 -136 174 -205 57 -69 109 -129 115 -135 6 -5 51 -56
100 -112 l88 -103 224 0 224 0 0 45 c0 48 11 33 -250 325 -184 207 -280 320
-280 333 0 8 26 31 57 52 198 131 286 287 286 505 0 190 -58 324 -201 465 -87
87 -180 138 -308 170 -94 24 -107 25 -465 25 -203 0 -369 -3 -369 -6z"/>
  </g>
</svg>
